<svg xmlns="http://www.w3.org/2000/svg" viewBox="0 0 148 148" role="img" aria-labelledby="title">
  <title id="title">PDF</title>
  <path fill="#e8edf0" d="M28 4h68l24 24v97a4 4 0 0 1-4 4H28a4 4 0 0 1-4-4V8a4 4 0 0 1 4-4z"/>
  <path fill="#cbd9e5" d="M96 4v24h24z"/>
  <path fill="none" stroke="#f21f3a" stroke-linecap="round" stroke-linejoin="round" stroke-width="4" d="M51 78c15-7 31-13 47-12 8 1 8 7 1 9-13 3-31-15-36-32-3-10 2-22 7-13 5 10-2 31-10 44-8 13-18 15-17 7 1-5 5-8 8-10"/>
  <path fill="#f21f3a" d="M24 93h96v32a4 4 0 0 1-4 4H28a4 4 0 0 1-4-4z"/>
  <text x="42" y="120" fill="#fff" font-family="Arial, sans-serif" font-size="28" font-weight="700">PDF</text>
</svg>
